<svg width="401" height="151" viewBox="0 0 401 151" fill="none" xmlns="http://www.w3.org/2000/svg">
<path d="M144.975 93.1856C142.639 93.1856 140.527 92.7856 138.639 91.9856C136.783 91.1856 135.311 90.0336 134.223 88.5296C133.135 87.0256 132.575 85.2496 132.543 83.2016H139.743C139.839 84.5776 140.319 85.6656 141.183 86.4656C142.079 87.2656 143.295 87.6656 144.831 87.6656C146.399 87.6656 147.631 87.2976 148.527 86.5616C149.423 85.7936 149.871 84.8016 149.871 83.5856C149.871 82.5936 149.567 81.7776 148.959 81.1376C148.351 80.4976 147.583 80.0016 146.655 79.6496C145.759 79.2656 144.511 78.8496 142.911 78.4016C140.735 77.7616 138.959 77.1376 137.583 76.5296C136.239 75.8896 135.071 74.9456 134.079 73.6976C133.119 72.4176 132.639 70.7216 132.639 68.6096C132.639 66.6256 133.135 64.8976 134.127 63.4256C135.119 61.9536 136.511 60.8336 138.303 60.0656C140.095 59.2656 142.143 58.8656 144.447 58.8656C147.903 58.8656 150.703 59.7136 152.847 61.4096C155.023 63.0736 156.223 65.4096 156.447 68.4176H149.055C148.991 67.2656 148.495 66.3216 147.567 65.5856C146.671 64.8176 145.471 64.4336 143.967 64.4336C142.655 64.4336 141.599 64.7696 140.799 65.4416C140.031 66.1136 139.647 67.0896 139.647 68.3696C139.647 69.2656 139.935 70.0176 140.511 70.6256C141.119 71.2016 141.855 71.6816 142.719 72.0656C143.615 72.4176 144.863 72.8336 146.463 73.3136C148.639 73.9536 150.415 74.5936 151.791 75.2336C153.167 75.8736 154.351 76.8336 155.343 78.1136C156.335 79.3936 156.831 81.0736 156.831 83.1536C156.831 84.9456 156.367 86.6096 155.439 88.1456C154.511 89.6816 153.151 90.9136 151.359 91.8416C149.567 92.7376 147.439 93.1856 144.975 93.1856ZM192.849 59.3456V92.8496H186.129V78.5936H171.777V92.8496H165.057V59.3456H171.777V73.1216H186.129V59.3456H192.849ZM222.408 86.4656H209.064L206.856 92.8496H199.8L211.848 59.2976L219.672 59.2976L231.72 92.8496H224.616L222.408 86.4656ZM220.584 81.0896L215.736 67.0736L210.888 81.0896H220.584ZM275.151 59.3456V92.8496H268.431V71.0576L259.455 92.8496H254.367L245.343 71.0576V92.8496H238.623V59.3456H246.255L256.911 84.2576L267.567 59.3456L275.151 59.3456ZM299.747 93.1856C296.611 93.1856 293.731 92.4496 291.107 90.9776C288.483 89.5056 286.403 87.4736 284.867 84.8816C283.331 82.2576 282.563 79.2976 282.563 76.0016C282.563 72.7376 283.331 69.8096 284.867 67.2176C286.403 64.5936 288.483 62.5456 291.107 61.0736C293.731 59.6016 296.611 58.8656 299.747 58.8656C302.915 58.8656 305.795 59.6016 308.387 61.0736C311.011 62.5456 313.075 64.5936 314.579 67.2176C316.115 69.8096 316.883 72.7376 316.883 76.0016C316.883 79.2976 316.115 82.2576 314.579 84.8816C313.075 87.4736 311.011 89.5056 308.387 90.9776C305.763 92.4496 302.883 93.1856 299.747 93.1856ZM299.747 87.1856C301.763 87.1856 303.539 86.7376 305.075 85.8416C306.611 84.9136 307.811 83.6016 308.675 81.9056C309.539 80.2096 309.971 78.2416 309.971 76.0016C309.971 73.7616 309.539 71.8096 308.675 70.1456C307.811 68.4496 306.611 67.1536 305.075 66.2576C303.539 65.3616 301.763 64.9136 299.747 64.9136C297.731 64.9136 295.939 65.3616 294.371 66.2576C292.835 67.1536 291.635 68.4496 290.771 70.1456C289.907 71.8096 289.475 73.7616 289.475 76.0016C289.475 78.2416 289.907 80.2096 290.771 81.9056C291.635 83.6016 292.835 84.9136 294.371 85.8416C295.939 86.7376 297.731 87.1856 299.747 87.1856Z" fill="#ECEDEF"/>
<path fill-rule="evenodd" clip-rule="evenodd" d="M43.4798 57.4504C43.8689 56.8958 44.261 56.7256 44.261 56.7256C44.261 56.7256 67.6755 43.048 71.8011 40.6682C72.1366 40.4714 72.3189 40.3645 72.3189 40.3645C72.3189 40.3645 72.8549 40.0166 73.7414 40.0381C74.6279 40.0166 75.1639 40.3645 75.1639 40.3645C75.1639 40.3645 75.3461 40.4714 75.6815 40.668C79.8066 43.0476 103.222 56.7256 103.222 56.7256C103.222 56.7256 103.614 56.8958 104.003 57.4504C104.76 58.1507 104.779 59.063 104.779 59.063C104.779 59.063 104.777 62.1538 104.774 66.4593C104.775 73.0791 104.771 83.2154 104.768 88.3329C104.769 89.7263 104.771 90.8545 104.773 91.6026C104.778 91.681 104.783 91.8151 104.775 91.9891C104.776 92.2795 104.778 92.4752 104.779 92.5632C104.807 94.0463 102.977 95.1605 102.977 95.1605L75.4214 111.261C74.8338 111.575 74.2515 111.671 73.7414 111.663C73.2313 111.671 72.649 111.575 72.0614 111.261L44.5062 95.1605C44.5062 95.1605 42.676 94.0463 42.7036 92.5632C42.7053 92.4752 42.7067 92.2795 42.708 91.9891C42.6995 91.8151 42.7043 91.681 42.7094 91.6026C42.7118 90.8547 42.7134 89.7269 42.7144 88.3339C42.7119 83.2166 42.7075 73.0789 42.7092 66.4587C42.7063 62.1535 42.7036 59.063 42.7036 59.063C42.7036 59.063 42.7232 58.1507 43.4798 57.4504ZM53.7176 92.4958C59.3595 95.7784 72.6508 103.564 72.6508 103.564C72.6508 103.564 73.1001 103.809 73.7414 103.867C74.3827 103.809 74.832 103.564 74.832 103.564C74.832 103.564 88.1233 95.7784 93.7652 92.4958L75.0636 81.0441C75.0636 81.0441 74.1656 80.444 73.7414 79.1158C73.3172 80.444 72.4192 81.0441 72.4192 81.0441L53.7176 92.4958ZM73.5243 71.9674L49.6003 86.6226C49.5995 85.3028 49.5986 83.2196 49.5978 80.835L49.5957 70.276C49.5959 67.0044 49.5974 64.4001 49.6012 63.7294C49.6151 61.403 50.8144 60.8838 50.8144 60.8838C50.8144 60.8838 71.5075 48.8349 72.8528 48.0799C73.1773 47.9395 73.4757 47.8674 73.7414 47.8388C74.0071 47.8674 74.3055 47.9395 74.63 48.0799C75.9753 48.8349 96.6684 60.8838 96.6684 60.8838C96.6684 60.8838 97.8678 61.403 97.8816 63.7294C97.8855 64.4001 97.8869 67.0044 97.8872 70.276L97.885 80.835C97.8842 83.2196 97.8833 85.3028 97.8825 86.6226L73.9585 71.9674V71.7014L73.7414 71.8344L73.5243 71.7014V71.9674Z" fill="#38ABBE"/>
</svg>
