<svg width="63" height="73" viewBox="0 0 63 73" fill="none" xmlns="http://www.w3.org/2000/svg">
<path fill-rule="evenodd" clip-rule="evenodd" d="M1.29128 18.1281C1.68043 17.5735 2.07252 17.4033 2.07252 17.4033C2.07252 17.4033 25.487 3.72573 29.6126 1.34588C29.9481 1.14912 30.1304 1.04224 30.1304 1.04224C30.1304 1.04224 30.6664 0.694305 31.5529 0.7158C32.4394 0.694304 32.9754 1.04224 32.9754 1.04224C32.9754 1.04224 33.1576 1.14907 33.493 1.34576C37.6181 3.7253 61.0333 17.4033 61.0333 17.4033C61.0333 17.4033 61.4254 17.5735 61.8145 18.1281C62.5711 18.8284 62.5907 19.7407 62.5907 19.7407C62.5907 19.7407 62.588 22.8316 62.5852 27.1371C62.5868 33.7568 62.5824 43.8932 62.5799 49.0106C62.5809 50.4041 62.5825 51.5323 62.5849 52.2803C62.59 52.3588 62.5949 52.4929 62.5863 52.6668C62.5876 52.9572 62.5891 53.1529 62.5907 53.241C62.6184 54.724 60.7881 55.8382 60.7881 55.8382L33.2329 71.9389C32.6453 72.2525 32.063 72.3488 31.5529 72.3407C31.0428 72.3488 30.4606 72.2525 29.8729 71.9389L2.31775 55.8382C2.31775 55.8382 0.487476 54.724 0.515119 53.241C0.516775 53.1529 0.518234 52.9572 0.519514 52.6669C0.510979 52.4929 0.51583 52.3587 0.520945 52.2803C0.523298 51.5324 0.52492 50.4046 0.525962 49.0116C0.523414 43.8944 0.519049 33.7566 0.520683 27.1365C0.517808 22.8313 0.515116 19.7407 0.515116 19.7407C0.515116 19.7407 0.534695 18.8284 1.29128 18.1281ZM11.5292 53.1736C17.171 56.4562 30.4623 64.2414 30.4623 64.2414C30.4623 64.2414 30.9116 64.4869 31.5529 64.5444C32.1942 64.4869 32.6435 64.2414 32.6435 64.2414C32.6435 64.2414 45.9348 56.4562 51.5767 53.1736L32.8751 41.7218C32.8751 41.7218 31.9772 41.1218 31.5529 39.7935C31.1287 41.1218 30.2307 41.7218 30.2307 41.7218L11.5292 53.1736ZM31.3358 32.6452L7.41177 47.3003C7.41105 45.9805 7.41008 43.8974 7.40935 41.5127L7.40717 30.9537C7.40741 27.6821 7.40887 25.0778 7.41275 24.4071C7.42657 22.0808 8.6259 21.5616 8.6259 21.5616C8.6259 21.5616 29.319 9.51266 30.6643 8.75764C30.9889 8.61719 31.2872 8.54514 31.5529 8.5165C31.8186 8.54514 32.117 8.61719 32.4415 8.75764C33.7868 9.51266 54.4799 21.5616 54.4799 21.5616C54.4799 21.5616 55.6793 22.0808 55.6931 24.4071C55.697 25.0778 55.6984 27.6821 55.6987 30.9537L55.6965 41.5127C55.6958 43.8974 55.6948 45.9805 55.6941 47.3003L31.77 32.6452V32.3792L31.5529 32.5122L31.3358 32.3792V32.6452Z" fill="#38ABBE"/>
</svg>
