<svg width="278" height="73" viewBox="0 0 278 73" fill="none" xmlns="http://www.w3.org/2000/svg">
<path d="M103.121 53.8633C100.785 53.8633 98.6734 53.4633 96.7854 52.6633C94.9294 51.8633 93.4574 50.7113 92.3694 49.2073C91.2814 47.7033 90.7214 45.9273 90.6894 43.8793H97.8894C97.9854 45.2553 98.4654 46.3433 99.3294 47.1433C100.225 47.9433 101.441 48.3433 102.977 48.3433C104.545 48.3433 105.777 47.9753 106.673 47.2393C107.569 46.4713 108.017 45.4793 108.017 44.2633C108.017 43.2713 107.713 42.4553 107.105 41.8153C106.497 41.1753 105.729 40.6793 104.801 40.3273C103.905 39.9433 102.657 39.5273 101.057 39.0793C98.8814 38.4393 97.1054 37.8153 95.7294 37.2073C94.3854 36.5673 93.2174 35.6233 92.2254 34.3753C91.2654 33.0953 90.7854 31.3993 90.7854 29.2873C90.7854 27.3033 91.2814 25.5753 92.2734 24.1033C93.2654 22.6313 94.6574 21.5113 96.4494 20.7433C98.2414 19.9433 100.289 19.5433 102.593 19.5433C106.049 19.5433 108.849 20.3913 110.993 22.0873C113.169 23.7513 114.369 26.0873 114.593 29.0953H107.201C107.137 27.9433 106.641 26.9993 105.713 26.2633C104.817 25.4953 103.617 25.1113 102.113 25.1113C100.801 25.1113 99.7454 25.4473 98.9454 26.1193C98.1774 26.7913 97.7934 27.7673 97.7934 29.0473C97.7934 29.9433 98.0814 30.6953 98.6574 31.3033C99.2654 31.8793 100.001 32.3593 100.865 32.7433C101.761 33.0953 103.009 33.5113 104.609 33.9913C106.785 34.6313 108.561 35.2713 109.937 35.9113C111.313 36.5513 112.497 37.5113 113.489 38.7913C114.481 40.0713 114.977 41.7513 114.977 43.8313C114.977 45.6233 114.513 47.2873 113.585 48.8233C112.657 50.3593 111.297 51.5913 109.505 52.5193C107.713 53.4153 105.585 53.8633 103.121 53.8633ZM150.995 20.0233V53.5273L144.275 53.5273V39.2713H129.923V53.5273H123.203V20.0233H129.923V33.7993H144.275V20.0233H150.995ZM180.554 47.1433H167.21L165.002 53.5273H157.946L169.994 19.9753L177.818 19.9753L189.866 53.5273H182.762L180.554 47.1433ZM178.73 41.7673L173.882 27.7513L169.034 41.7673H178.73ZM233.297 20.0233V53.5273H226.577V31.7353L217.601 53.5273H212.513L203.489 31.7353V53.5273H196.769V20.0233H204.401L215.057 44.9353L225.713 20.0233L233.297 20.0233ZM257.893 53.8633C254.757 53.8633 251.877 53.1273 249.253 51.6553C246.629 50.1833 244.549 48.1513 243.013 45.5593C241.477 42.9353 240.709 39.9753 240.709 36.6793C240.709 33.4153 241.477 30.4873 243.013 27.8953C244.549 25.2713 246.629 23.2233 249.253 21.7513C251.877 20.2793 254.757 19.5433 257.893 19.5433C261.061 19.5433 263.941 20.2793 266.533 21.7513C269.157 23.2233 271.221 25.2713 272.725 27.8953C274.261 30.4873 275.029 33.4153 275.029 36.6793C275.029 39.9753 274.261 42.9353 272.725 45.5593C271.221 48.1513 269.157 50.1833 266.533 51.6553C263.909 53.1273 261.029 53.8633 257.893 53.8633ZM257.893 47.8633C259.909 47.8633 261.685 47.4153 263.221 46.5193C264.757 45.5913 265.957 44.2793 266.821 42.5833C267.685 40.8873 268.117 38.9193 268.117 36.6793C268.117 34.4393 267.685 32.4873 266.821 30.8233C265.957 29.1273 264.757 27.8313 263.221 26.9353C261.685 26.0393 259.909 25.5913 257.893 25.5913C255.877 25.5913 254.085 26.0393 252.517 26.9353C250.981 27.8313 249.781 29.1273 248.917 30.8233C248.053 32.4873 247.621 34.4393 247.621 36.6793C247.621 38.9193 248.053 40.8873 248.917 42.5833C249.781 44.2793 250.981 45.5913 252.517 46.5193C254.085 47.4153 255.877 47.8633 257.893 47.8633Z" fill="#ECEDEF"/>
<path fill-rule="evenodd" clip-rule="evenodd" d="M1.62565 18.1281C2.0148 17.5735 2.40689 17.4033 2.40689 17.4033C2.40689 17.4033 25.8216 3.72558 29.9471 1.34584C30.2825 1.1491 30.4648 1.04224 30.4648 1.04224C30.4648 1.04224 31.0008 0.694305 31.8873 0.7158C32.7738 0.694304 33.3098 1.04224 33.3098 1.04224C33.3098 1.04224 33.4921 1.14915 33.8277 1.34598C37.9539 3.72611 61.3677 17.4033 61.3677 17.4033C61.3677 17.4033 61.7598 17.5735 62.1489 18.1281C62.9055 18.8284 62.9251 19.7407 62.9251 19.7407C62.9251 19.7407 62.9224 22.8312 62.9195 27.1364C62.9212 33.7573 62.9168 43.8966 62.9142 49.0133C62.9153 50.4055 62.9169 51.5327 62.9193 52.2803C62.9244 52.3587 62.9292 52.4929 62.9207 52.6669C62.922 52.9572 62.9234 53.1529 62.9251 53.241C62.9527 54.724 61.1225 55.8382 61.1225 55.8382L33.5673 71.9389C32.9797 72.2525 32.3974 72.3488 31.8873 72.3407C31.3772 72.3488 30.7949 72.2525 30.2073 71.9389L2.65212 55.8382C2.65212 55.8382 0.821849 54.724 0.849492 53.241C0.851148 53.1529 0.852608 52.9572 0.853888 52.6669C0.845352 52.4929 0.850203 52.3587 0.855319 52.2803C0.857672 51.5324 0.859293 50.4046 0.860336 49.0116C0.857788 43.8945 0.853423 33.7573 0.855057 27.1371C0.852181 22.8316 0.849489 19.7407 0.849489 19.7407C0.849489 19.7407 0.869069 18.8284 1.62565 18.1281ZM11.8635 53.1736C17.5054 56.4562 30.7967 64.2414 30.7967 64.2414C30.7967 64.2414 31.246 64.4869 31.8873 64.5444C32.5286 64.4869 32.9779 64.2414 32.9779 64.2414C32.9779 64.2414 46.2692 56.4562 51.9111 53.1736L33.2095 41.7218C33.2095 41.7218 32.3115 41.1218 31.8873 39.7935C31.4631 41.1218 30.5651 41.7218 30.5651 41.7218L11.8635 53.1736ZM31.6702 32.6452L7.74615 47.3003C7.74542 45.9805 7.74445 43.8974 7.74373 41.5127L7.74154 30.9537C7.74178 27.6821 7.74324 25.0778 7.74712 24.4071C7.76094 22.0808 8.96027 21.5616 8.96027 21.5616C8.96027 21.5616 29.6534 9.51266 30.9987 8.75764C31.3232 8.61719 31.6216 8.54514 31.8873 8.5165C32.153 8.54514 32.4513 8.61719 32.7759 8.75764C34.1212 9.51266 54.8143 21.5616 54.8143 21.5616C54.8143 21.5616 56.0136 22.0808 56.0275 24.4071C56.0313 25.0778 56.0328 27.6821 56.033 30.9537L56.0309 41.5127C56.0301 43.8974 56.0292 45.9805 56.0284 47.3003L32.1044 32.6452V32.3792L31.8873 32.5122L31.6702 32.3792V32.6452Z" fill="#38ABBE"/>
</svg>
